# xmcd
# Copyright (C) 1995-1998 Ti Kan
#
# Track frame offsets:
#       150
#       19175
#       32091
#       48628
#       60279
#       74405
#       87733
#       101658
#       115836
#       129556
#       141052
#       154859
#       164822
#       188093
#       202171
#
# Disc length: 2876 seconds
#
# Revision: 0
# Processed by: cddbd v1.5.2PL0 Copyright (c) Steve Scherf et al.
# Submitted via: CD-Transfer v1.0
#
DISCID=de0b3a0f
DTITLE=Volxrock - Im Anmarsch
DYEAR=11
DGENRE=
TTITLE0=Volxrock Medley
TTITLE1=Katharina I Mog Di
TTITLE2=Rock'n Roll Tonight
TTITLE3=Vögel Im Wald
TTITLE4=Kirschta
TTITLE5=Die 6 Maschin
TTITLE6=Tiroler Boden
TTITLE7=I Lass Di Net Gian
TTITLE8=Barbara
TTITLE9=Disco Nocht
TTITLE10=Du Bisch Des Madl
TTITLE11=Wein Weib Gesang
TTITLE12=Kastelruther Spatzen Medley
TTITLE13=Du
TTITLE14=Was Macht Das Edelweiss In Meiner Suppen
EXTD=
EXTT0=
EXTT1=
EXTT2=
EXTT3=
EXTT4=
EXTT5=
EXTT6=
EXTT7=
EXTT8=
EXTT9=
EXTT10=
EXTT11=
EXTT12=
EXTT13=
EXTT14=
PLAYORDER=
